<?xml version="1.0" standalone="no"?>
<!DOCTYPE svg PUBLIC "-//W3C//DTD SVG 20010904//EN"
 "http://www.w3.org/TR/2001/REC-SVG-20010904/DTD/svg10.dtd">
<svg version="1.0" xmlns="http://www.w3.org/2000/svg"
 width="736.000000pt" height="373.000000pt" viewBox="0 0 736.000000 373.000000"
 preserveAspectRatio="xMidYMid meet">

<g transform="translate(0.000000,373.000000) scale(0.100000,-0.100000)"
fill="#000000" stroke="none">
<path d="M3260 3149 c-119 -23 -236 -115 -288 -227 -24 -51 -27 -69 -27 -167
0 -99 3 -116 27 -168 35 -74 114 -157 182 -190 87 -43 177 -54 276 -34 95 18
173 60 178 95 4 24 -48 106 -77 121 -13 8 -30 3 -67 -16 -73 -40 -163 -39
-230 2 -96 59 -133 196 -81 296 54 101 170 135 302 88 l65 -23 34 33 c45 43
61 82 47 109 -14 27 -102 69 -170 82 -62 12 -108 11 -171 -1z"/>
<path d="M4590 3145 c-286 -80 -392 -420 -203 -652 129 -159 386 -190 554 -67
57 41 92 86 127 162 24 51 27 69 27 167 0 99 -3 116 -27 168 -83 176 -292 274
-478 222z m200 -192 c140 -57 171 -255 57 -360 -53 -49 -103 -67 -168 -61
-154 15 -245 185 -174 324 56 107 167 145 285 97z"/>
<path d="M1768 3139 c-17 -9 -18 -38 -18 -382 0 -277 3 -376 12 -385 7 -7 41
-12 84 -12 106 0 104 -3 104 201 0 93 3 169 8 169 4 0 39 -43 77 -96 39 -53
80 -100 92 -105 12 -4 38 -5 58 -2 32 5 43 17 113 117 l77 111 5 -185 c3 -102
9 -191 13 -197 11 -17 158 -18 175 -1 17 17 17 749 0 766 -14 14 -131 16 -156
3 -10 -5 -67 -79 -127 -165 -61 -86 -114 -154 -120 -153 -5 2 -62 75 -125 163
l-116 159 -69 2 c-39 2 -78 -2 -87 -8z"/>
<path d="M2710 3143 c-8 -3 -18 -11 -22 -17 -4 -6 -8 -176 -8 -377 0 -317 2
-368 15 -379 19 -15 153 -16 169 0 6 6 9 147 7 382 -2 333 -4 374 -18 386 -17
12 -115 16 -143 5z"/>
<path d="M3680 3137 l-25 -13 -3 -358 c-3 -428 -8 -406 98 -406 97 0 100 4
100 151 0 118 5 136 34 107 6 -7 49 -60 95 -118 116 -145 108 -140 207 -140
70 0 85 3 93 18 12 23 7 32 -100 164 -49 60 -89 113 -89 118 0 4 11 11 24 14
14 3 45 27 70 52 82 82 98 207 38 303 -31 52 -110 105 -169 115 -71 11 -346 7
-373 -7z m364 -188 c33 -26 35 -73 4 -106 -19 -21 -30 -23 -110 -23 l-88 0 0
75 0 75 84 0 c69 0 88 -4 110 -21z"/>
<path d="M3150 2287 c-304 -70 -412 -455 -190 -677 88 -88 220 -131 340 -110
79 14 151 44 180 75 29 31 22 62 -29 115 l-38 40 -57 -26 c-127 -58 -252 -20
-303 93 -52 112 -15 237 86 290 59 31 143 31 213 1 l51 -22 39 44 c21 23 41
54 44 67 20 77 -187 144 -336 110z"/>
<path d="M4308 2286 c-109 -31 -198 -108 -251 -216 -30 -61 -32 -71 -32 -175
0 -104 2 -114 32 -176 118 -239 442 -299 644 -120 99 87 153 241 129 364 -26
132 -103 233 -225 293 -65 32 -85 37 -162 40 -55 2 -106 -2 -135 -10z m213
-193 c35 -19 64 -43 84 -71 27 -40 30 -51 30 -126 0 -73 -3 -87 -27 -124 -85
-128 -274 -130 -362 -4 -26 37 -31 55 -34 116 -3 58 0 81 16 112 59 115 179
154 293 97z"/>
<path d="M1780 2283 c-8 -3 -18 -11 -22 -17 -4 -6 -8 -174 -8 -373 0 -417 -6
-393 91 -393 97 0 99 2 100 133 1 160 -5 152 123 152 84 0 109 3 116 15 5 8
10 45 10 82 0 84 -5 88 -138 88 l-100 0 -4 61 c-1 33 -1 63 1 65 2 2 77 4 166
4 193 0 195 1 195 98 0 95 9 92 -273 91 -133 0 -249 -3 -257 -6z"/>
<path d="M3543 2280 c-27 -11 -37 -46 -30 -107 6 -60 25 -73 104 -73 l63 0 0
-290 0 -290 27 -11 c33 -12 145 -2 155 15 4 6 8 138 8 294 l0 282 61 0 c92 0
99 7 99 95 0 63 -3 76 -19 85 -24 12 -436 13 -468 0z"/>
<path d="M4908 2278 l-28 -10 0 -363 c0 -200 3 -370 6 -379 9 -23 169 -23 178
0 3 9 6 67 6 130 0 63 4 114 9 114 16 0 48 -34 136 -147 l87 -113 57 -2 c105
-3 141 6 141 36 0 6 -42 65 -94 130 l-93 120 35 24 c141 95 162 284 44 394
-26 25 -64 50 -83 56 -45 14 -366 21 -401 10z m347 -192 c20 -13 25 -25 25
-56 0 -60 -32 -80 -131 -80 l-79 0 0 74 c0 50 4 76 13 80 25 11 146 -1 172
-18z"/>
<path d="M5483 2283 c-40 -8 -40 -47 -1 -96 19 -23 81 -102 136 -176 l102
-134 0 -172 c0 -136 3 -175 14 -184 9 -8 43 -11 93 -9 l78 3 3 178 2 178 135
180 c74 99 135 186 135 193 0 32 -26 39 -133 37 l-67 -1 -63 -87 c-34 -47 -71
-97 -83 -111 l-20 -24 -82 110 c-46 60 -88 112 -95 114 -16 6 -127 7 -154 1z"/>
<path d="M2451 2259 c-10 -11 -63 -118 -116 -237 -54 -119 -125 -275 -158
-346 -68 -146 -68 -156 7 -170 80 -14 86 -8 187 201 50 104 100 209 111 236
11 26 24 47 27 47 7 0 107 -201 189 -380 21 -47 46 -91 54 -98 26 -21 118 -12
134 13 12 18 3 45 -85 250 -118 274 -208 475 -223 492 -18 22 -104 16 -127 -8z"/>
<path d="M2473 1709 c-40 -12 -65 -47 -65 -94 0 -68 57 -114 126 -101 75 14
102 108 49 165 -32 34 -65 42 -110 30z"/>
<path d="M3902 1436 c-42 -14 -104 -55 -130 -86 -54 -63 -67 -167 -29 -240 31
-62 86 -100 202 -139 55 -18 110 -42 123 -54 50 -47 7 -107 -78 -107 -39 0
-59 7 -109 41 l-61 41 -34 -21 c-70 -44 -86 -108 -38 -153 15 -15 52 -39 82
-55 50 -25 64 -28 160 -28 123 0 162 15 227 89 62 70 78 151 48 237 -29 83
-95 131 -237 174 -106 32 -125 47 -118 95 6 50 98 54 178 9 55 -31 55 -31 80
-12 14 11 39 36 55 56 45 54 34 78 -56 122 -87 43 -191 55 -265 31z"/>
<path d="M1762 1428 c-9 -9 -12 -108 -12 -384 0 -205 3 -379 6 -388 5 -14 38
-16 259 -16 205 0 255 3 264 14 7 9 11 42 9 88 l-3 73 -167 3 -168 2 0 291 c0
181 -4 298 -10 310 -9 16 -22 19 -88 19 -47 0 -83 -5 -90 -12z"/>
<path d="M2579 1372 c-111 -113 -175 -272 -199 -493 -10 -93 -9 -153 6 -232
10 -49 45 -46 109 8 31 26 57 46 58 44 1 -2 7 -13 13 -24 9 -17 23 -20 92 -23
78 -3 81 -2 95 23 l13 26 56 -45 c101 -82 122 -61 121 119 -1 186 -44 347
-130 494 -40 69 -133 171 -154 171 -7 0 -43 -31 -80 -68z m132 -74 c55 -70
114 -195 139 -299 24 -97 39 -289 23 -289 -6 0 -42 29 -81 65 -110 102 -163
102 -271 -1 -38 -35 -71 -64 -75 -64 -11 0 -6 147 9 231 25 144 73 260 147
357 22 28 47 52 54 52 7 0 32 -24 55 -52z m-11 -548 c0 -28 -2 -30 -40 -30
-27 0 -43 5 -46 15 -12 30 4 45 46 45 38 0 40 -2 40 -30z"/>
<path d="M2614 1186 c-70 -31 -87 -120 -35 -178 25 -28 36 -33 75 -33 36 0 51
6 75 29 38 36 48 83 28 122 -32 62 -87 85 -143 60z m67 -66 c21 -12 25 -50 7
-68 -18 -18 -56 -14 -68 7 -14 27 -13 37 6 55 18 19 28 20 55 6z"/>
<path d="M3042 1428 c-13 -17 -22 -755 -9 -775 11 -18 413 -18 471 -1 25 8 61
32 92 63 43 42 54 59 64 106 18 80 0 148 -52 205 -26 28 -35 45 -27 49 22 14
49 91 49 141 0 79 -40 148 -110 188 l-55 31 -206 3 c-166 3 -208 1 -217 -10z
m380 -185 c28 -32 30 -58 7 -86 -20 -26 -25 -27 -115 -27 l-94 0 0 65 0 65 93
0 c77 0 97 -3 109 -17z m33 -318 c30 -29 31 -45 4 -79 -20 -25 -24 -26 -130
-26 l-109 0 0 65 0 65 105 0 c99 0 107 -2 130 -25z"/>
<path d="M2612 598 c-11 -13 -24 -35 -27 -50 -16 -64 43 -196 82 -181 25 10
63 103 63 154 0 86 -68 130 -118 77z"/>
</g>
</svg>
